<svg xmlns="http://www.w3.org/2000/svg" viewBox="0 0 61.2 61.2"><defs><style>.cls-1{fill:#5b9150;}.cls-2{fill:#fff;}</style></defs><title>favicon</title><g id="Capa_2" data-name="Capa 2"><g id="texto"><rect class="cls-1" width="61.2" height="61.2" rx="30.6"/><path class="cls-2" d="M30.06,49.88a17,17,0,0,1-10.68-4.22,14.71,14.71,0,0,1-4.66-11c-.12-5.54,0-11.08-.08-16.62,0-.91.45-1,1.16-.9,6.93.92,12.94,5,13.75,13C30.21,36.55,29.92,43.12,30.06,49.88Zm-2.21-2.31a2.62,2.62,0,0,0,.09-.41c0-5,.12-9.92,0-14.88-.22-6.71-4-11.32-10.2-12.86-.31-.07-.65-.08-1.11-.14v1.27c0,4.27,0,8.54,0,12.8a23,23,0,0,0,.47,4.46A12.46,12.46,0,0,0,27.85,47.57Z"/><path class="cls-2" d="M32.23,50c.32-5.45-.7-10.74,1.41-15.81S42.07,25,47.5,25.39c0,.47,0,1,0,1.44-.06,3.15.06,6.31-.23,9.43-.67,7-5.11,11.78-12,13.27C34.37,49.73,33.42,49.84,32.23,50Zm2-2.25c4.29-.93,7.62-2.82,9.65-6.58,2.35-4.34,1.53-9,1.67-13.78-3.71.76-6.74,2.32-8.85,5.36C33.51,37.33,34.27,42.52,34.2,47.78Z"/><path class="cls-2" d="M17.3,14.86C27.07,7.52,41.93,11.57,46.47,23c-1.63.54-1.71.52-2.45-.79A17.6,17.6,0,0,0,21.1,14.78C19.33,15.56,19.33,15.56,17.3,14.86Z"/><path class="cls-2" d="M42.41,23.81l-1.58.58a36.84,36.84,0,0,0-3.2-3.71,12.85,12.85,0,0,0-11.87-3.14,3.72,3.72,0,0,1-3.14-.91C28.74,13.41,38.51,15.85,42.41,23.81Z"/><path class="cls-2" d="M38.59,25.49l-1.46,1a6.06,6.06,0,0,1-.42-.53A9.72,9.72,0,0,0,29,21.28c-.76-.07-1.45-.89-2.35-1.49C30.47,18.51,36.54,20.91,38.59,25.49Z"/></g></g></svg>