<svg xmlns="http://www.w3.org/2000/svg" viewBox="0 0 329.83 268.76"><defs><style>.cls-1{fill:#fff;}.cls-2{opacity:0.8;}</style></defs><title>logofooter_1</title><g id="Capa_2" data-name="Capa 2"><g id="Capa_1-2" data-name="Capa 1"><path class="cls-1" d="M169,111.7V142c5.51,0,56-4,56-59.89V51.38C216.06,51.38,169,57.1,169,111.7ZM217.5,82.12c0,20.61-7.51,35.56-22.3,44.43a59.55,59.55,0,0,1-18.68,7V111.7c0-20.39,7.13-35.29,21.19-44.29a56.86,56.86,0,0,1,19.79-7.68Z"/><path class="cls-1" d="M104.8,21.4V81.84c0,55.86,50.53,59.88,56,59.88v-60C160.83,27.12,113.77,21.4,104.8,21.4Zm48.51,111.87a59.55,59.55,0,0,1-18.69-7c-14.79-8.87-22.29-23.82-22.29-44.43V29.75a56.82,56.82,0,0,1,19.79,7.67c14,9,21.19,23.9,21.19,44.29Z"/><path class="cls-1" d="M155.92,7.53a64.32,64.32,0,0,1,58.32,37.33,65,65,0,0,1,7.84-.83,71.72,71.72,0,0,0-109-29.84,63.58,63.58,0,0,1,10.18,2.23A63.85,63.85,0,0,1,155.92,7.53Z"/><path class="cls-1" d="M206.82,46.58A56.8,56.8,0,0,0,132.53,20a64.34,64.34,0,0,1,8.33,4.84,49.33,49.33,0,0,1,58.83,24.34A64.29,64.29,0,0,1,206.82,46.58Z"/><path class="cls-1" d="M155.92,30a42.27,42.27,0,0,0-7.68.71,64.79,64.79,0,0,1,6.4,6.85c.42,0,.85,0,1.28,0a34.2,34.2,0,0,1,30.7,19.2A64.34,64.34,0,0,1,193,52.54,41.7,41.7,0,0,0,155.92,30Z"/><path class="cls-1" d="M26.23,153.84H35v28.24a20.36,20.36,0,0,1-1.23,7.43,13.16,13.16,0,0,1-3.46,5.15,14.09,14.09,0,0,1-5.35,3,22.7,22.7,0,0,1-6.82,1q-8.86,0-13.52-3.87T0,183.15V153.84H9.31v27.61c0,3.36.73,5.69,2.2,7s3.65,2,6.54,2,4.83-.69,6.17-2.1,2-3.7,2-6.89Z"/><path class="cls-1" d="M62.91,172.9a11.89,11.89,0,0,0-3.78-.63,7.51,7.51,0,0,0-4.56,1.32,6.15,6.15,0,0,0-2.36,3.34v20.94h-8.8v-33h6.92l.94,4.6h.82a9.78,9.78,0,0,1,3.36-4,8.6,8.6,0,0,1,4.81-1.38,13.16,13.16,0,0,1,3.9.69Z"/><path class="cls-1" d="M69,153.84h8.8v13.84h.76A10.28,10.28,0,0,1,82.38,165a13.44,13.44,0,0,1,5.19-1q6.42,0,9.78,4.19t3.36,12.24a22.7,22.7,0,0,1-1.22,7.74A15.86,15.86,0,0,1,96,193.91a15,15,0,0,1-5.54,3.55,20.77,20.77,0,0,1-7.36,1.23,48.48,48.48,0,0,1-8.43-.66A29.4,29.4,0,0,1,69,196.55Zm8.8,36.54a7.78,7.78,0,0,0,2.68.8,29,29,0,0,0,3,.15q8.17,0,8.18-10.7c0-3-.57-5.31-1.7-6.88a5.78,5.78,0,0,0-5-2.36,7.36,7.36,0,0,0-4.57,1.32,8,8,0,0,0-2.61,3.9Z"/><path class="cls-1" d="M107.57,167.11a33.54,33.54,0,0,1,7-2.08,44.15,44.15,0,0,1,8.53-.82,18.13,18.13,0,0,1,5.82.82,8.78,8.78,0,0,1,3.74,2.36,9.14,9.14,0,0,1,2,3.72,18,18,0,0,1,.6,4.81c0,2.13-.08,4.26-.25,6.35s-.25,4.32-.25,6.67a33.63,33.63,0,0,0,.31,4.65,24.61,24.61,0,0,0,1,4.35h-7.18L127.39,193h-.76a14.78,14.78,0,0,1-4.15,3.77,12,12,0,0,1-6.48,1.57,13,13,0,0,1-4.37-.69,9.71,9.71,0,0,1-3.4-2,9.13,9.13,0,0,1-2.2-3,9.35,9.35,0,0,1-.79-3.84q0-5.59,3.75-8.46t11.35-2.86a22.1,22.1,0,0,1,3.53.28l2.45.41a15.8,15.8,0,0,0,.19-2.26,4.65,4.65,0,0,0-1.2-3.53c-.8-.75-2.28-1.13-4.47-1.13A24.53,24.53,0,0,0,115,172a27.11,27.11,0,0,0-5.06,1.8Zm11.51,24.22a7.39,7.39,0,0,0,4.72-1.39,9.37,9.37,0,0,0,2.58-2.89v-3.78a5.87,5.87,0,0,0-1-.24c-.44-.09-.92-.17-1.45-.26s-1-.14-1.57-.19-1-.06-1.42-.06a8.37,8.37,0,0,0-5,1.23,3.7,3.7,0,0,0-1.64,3.05,4.29,4.29,0,0,0,1.29,3.4A5.14,5.14,0,0,0,119.08,191.33Z"/><path class="cls-1" d="M166.58,197.87V179.75q0-4.27-1.32-6.16c-.88-1.26-2.44-1.89-4.66-1.89a7.65,7.65,0,0,0-4.81,1.54,7.94,7.94,0,0,0-2.74,3.94c0,3.43,0,6.89,0,10.34s0,6.91,0,10.35h-8.81v-33h6.92l.94,4.72h1a14.42,14.42,0,0,1,4.34-4,13.27,13.27,0,0,1,7-1.67,15.26,15.26,0,0,1,4.69.66,7.29,7.29,0,0,1,3.4,2.27,11.12,11.12,0,0,1,2.08,4.31,27.34,27.34,0,0,1,.72,6.79v19.94Z"/><path class="cls-1" d="M184.13,167.11a33.36,33.36,0,0,1,7-2.08,44.12,44.12,0,0,1,8.52-.82,18,18,0,0,1,5.82.82,8.76,8.76,0,0,1,3.75,2.36,9.14,9.14,0,0,1,2,3.72,18,18,0,0,1,.59,4.81c0,2.13-.08,4.26-.24,6.35s-.26,4.32-.26,6.67a33.61,33.61,0,0,0,.32,4.65,24.6,24.6,0,0,0,1,4.35h-7.17L204,193h-.76A14.92,14.92,0,0,1,199,196.8a12.05,12.05,0,0,1-6.48,1.57,13,13,0,0,1-4.37-.69,9.71,9.71,0,0,1-3.4-2,9.13,9.13,0,0,1-2.2-3,9.35,9.35,0,0,1-.79-3.84q0-5.59,3.75-8.46t11.35-2.86a22,22,0,0,1,3.52.28l2.46.41a17.41,17.41,0,0,0,.19-2.26,4.65,4.65,0,0,0-1.2-3.53c-.8-.75-2.28-1.13-4.47-1.13a24.53,24.53,0,0,0-5.88.72,27.11,27.11,0,0,0-5.06,1.8Zm11.51,24.22a7.41,7.41,0,0,0,4.72-1.39,9.5,9.5,0,0,0,2.58-2.89v-3.78a5.87,5.87,0,0,0-1-.24l-1.45-.26c-.52-.08-1.05-.14-1.58-.19s-1-.06-1.41-.06a8.37,8.37,0,0,0-5,1.23,3.7,3.7,0,0,0-1.64,3.05,4.29,4.29,0,0,0,1.29,3.4A5.12,5.12,0,0,0,195.64,191.33Z"/><path class="cls-1" d="M216.84,164.84h5v-4.52l8.8-2.33v6.85h8.88v7.37h-8.88v11.45a14.91,14.91,0,0,0,.79,5.69,3.07,3.07,0,0,0,3.11,1.73,12.18,12.18,0,0,0,2.46-.22,12,12,0,0,0,2.14-.72l1.82,6.6a27.36,27.36,0,0,1-4.63,1.51,21.43,21.43,0,0,1-5.06.63q-4.91,0-7.17-2.42t-2.26-7.77V172.21h-5Z"/><path class="cls-1" d="M246,157.74a4.4,4.4,0,0,1,1.45-3.37,5.77,5.77,0,0,1,4.09-1.35,6.23,6.23,0,0,1,4.27,1.38,4.3,4.3,0,0,1,1.58,3.34,4,4,0,0,1-1.58,3.14,6.41,6.41,0,0,1-4.27,1.32,5.85,5.85,0,0,1-4.09-1.32A4.1,4.1,0,0,1,246,157.74Zm1.32,7.1h8.81v33h-8.81Z"/><path class="cls-1" d="M278.05,184.16h-3v13.71h-8.8v-44H275v25.28l2.77-1.19L286,164.84h9.69l-8.43,12h.06l-4,2.89,4.21,2.77h-.06l9.69,15.35H287Z"/><path class="cls-1" d="M301.39,167.11a33.54,33.54,0,0,1,6.95-2.08,44.22,44.22,0,0,1,8.53-.82,18.09,18.09,0,0,1,5.82.82,8.78,8.78,0,0,1,3.74,2.36,9.14,9.14,0,0,1,2,3.72,18,18,0,0,1,.6,4.81c0,2.13-.09,4.26-.25,6.35s-.25,4.32-.25,6.67a33.63,33.63,0,0,0,.31,4.65,24.61,24.61,0,0,0,1,4.35h-7.18L321.21,193h-.76a14.78,14.78,0,0,1-4.15,3.77,12.05,12.05,0,0,1-6.48,1.57,13,13,0,0,1-4.37-.69,9.8,9.8,0,0,1-3.4-2,9.17,9.17,0,0,1-3-6.89q0-5.59,3.75-8.46t11.35-2.86a22.1,22.1,0,0,1,3.53.28l2.45.41a15.8,15.8,0,0,0,.19-2.26,4.65,4.65,0,0,0-1.2-3.53c-.79-.75-2.28-1.13-4.46-1.13a24.4,24.4,0,0,0-5.88.72,27.22,27.22,0,0,0-5.07,1.8Zm11.51,24.22a7.37,7.37,0,0,0,4.72-1.39,9.5,9.5,0,0,0,2.58-2.89v-3.78a5.87,5.87,0,0,0-1-.24c-.44-.09-.93-.17-1.45-.26s-1-.14-1.58-.19-1-.06-1.41-.06a8.37,8.37,0,0,0-5,1.23,3.7,3.7,0,0,0-1.64,3.05,4.27,4.27,0,0,0,1.3,3.4A5.09,5.09,0,0,0,312.9,191.33Z"/><g class="cls-2"><path class="cls-1" d="M1.6,223.81V211.19H5.43v12.62Z"/><path class="cls-1" d="M18.87,223.81l-2.33-4.32c-.53-1-1-2-1.37-2.85a16.1,16.1,0,0,1,.1,2v5.16H11.59V211.19h4.89l2,3.75c.59,1.13,1.21,2.27,1.68,3.28A24,24,0,0,1,20,215.6v-4.41h3.68v12.62Z"/><path class="cls-1" d="M34.32,223.9c-1.5,0-3,0-4.4-.11V211.22c1.09-.05,3-.11,5-.11,4,0,6.89,1.52,6.89,6.08C41.81,221.51,38.83,223.9,34.32,223.9Zm.39-9.85a8.66,8.66,0,0,0-1,0v6.75a4.1,4.1,0,0,0,.88.06c1.71,0,3-1.07,3-3.42C37.67,215.51,37.26,214.05,34.71,214.05Z"/><path class="cls-1" d="M53,224.07c-4.46,0-5.63-2.15-5.63-4.83v-8.05h3.82v7.89c0,1.34.45,2.07,2,2.07s2-.6,2-2.17v-7.79H59v7.61C59,222.46,56.71,224.07,53,224.07Z"/><path class="cls-1" d="M67.94,224.05a15.14,15.14,0,0,1-2.86-.26l.2-3.18a10.73,10.73,0,0,0,3,.45c.92,0,1.52-.36,1.52-.94,0-1.83-5.19-.75-5.19-5.06,0-2.51,2.12-4.12,5.78-4.12a18.44,18.44,0,0,1,2.53.21l-.2,3a9.75,9.75,0,0,0-2.47-.34c-1.07,0-1.52.39-1.52.88,0,1.59,5.18,1,5.18,4.92C73.88,222.14,71.64,224.05,67.94,224.05Z"/><path class="cls-1" d="M85.08,214.18v9.63H81.26v-9.63h-3v-3h9.83v3Z"/><path class="cls-1" d="M99.79,223.81l-2.61-4.6H97v4.6H93.21V211.19c1.29-.08,3-.1,4.75-.1,3.54,0,5.51,1.14,5.51,3.95a3.63,3.63,0,0,1-2.53,3.46c.37.5.7,1,1,1.45l2.49,3.86Zm-2-9.86a6.57,6.57,0,0,0-.72,0v2.71a5.76,5.76,0,0,0,.64,0c1,0,1.77-.51,1.77-1.44C99.44,214.55,99,214,97.75,214Z"/><path class="cls-1" d="M109.36,223.81V211.19h3.83v12.62Z"/><path class="cls-1" d="M127.54,223.81l-.71-2.06h-4.28l-.7,2.06h-3.79l4.53-12.62H127l4.75,12.62Zm-2.24-6.38a16.83,16.83,0,0,1-.64-2.19h0a16.26,16.26,0,0,1-.67,2.4l-.48,1.38h2.39Z"/><path class="cls-1" d="M157.12,223.81l-.72-2.06h-4.27l-.7,2.06h-3.79l4.53-12.62h4.38l4.75,12.62Zm-2.24-6.38a14.18,14.18,0,0,1-.63-2.19h-.05a16.26,16.26,0,0,1-.67,2.4l-.48,1.38h2.39Z"/><path class="cls-1" d="M176.83,214.74a11,11,0,0,0-3.68-.62c-2.53,0-3.85,1.44-3.85,3.48s1,3.25,3.4,3.25a3,3,0,0,0,.78-.09v-3.83h3.83v6.22a13.76,13.76,0,0,1-5,.88c-4.67,0-7.16-2.41-7.16-6.19,0-4.09,3.13-6.86,8.18-6.86a15.77,15.77,0,0,1,4.08.56Z"/><path class="cls-1" d="M190,223.81l-2.61-4.6h-.14v4.6h-3.83V211.19c1.3-.08,3-.1,4.75-.1,3.54,0,5.51,1.14,5.51,3.95a3.63,3.63,0,0,1-2.53,3.46c.37.5.7,1,1,1.45l2.49,3.86ZM188,214a6.27,6.27,0,0,0-.72,0v2.71a5.57,5.57,0,0,0,.63,0c1,0,1.77-.51,1.77-1.44C189.67,214.55,189.24,214,188,214Z"/><path class="cls-1" d="M205.32,224.07c-4.36,0-6.5-2.39-6.5-6.4s3.17-6.75,7.05-6.75c3.62,0,6.5,1.78,6.5,6.36C212.37,221.39,209.27,224.07,205.32,224.07Zm.27-10c-1.34,0-2.7.94-2.7,3.31,0,2.15.76,3.46,2.61,3.46,1.2,0,2.8-.75,2.8-3.42C208.3,215.24,207.42,214.1,205.59,214.1Z"/><path class="cls-1" d="M235.82,224.07c-4.46,0-5.63-2.15-5.63-4.83v-8.05H234v7.89c0,1.34.46,2.07,2,2.07s2-.6,2-2.17v-7.79h3.79v7.61C241.87,222.46,239.55,224.07,235.82,224.07Z"/><path class="cls-1" d="M254.61,223.81l-2.61-4.6h-.14v4.6H248V211.19c1.3-.08,3-.1,4.75-.1,3.54,0,5.51,1.14,5.51,3.95a3.63,3.63,0,0,1-2.53,3.46c.37.5.7,1,1,1.45l2.49,3.86Zm-2-9.86a6.22,6.22,0,0,0-.71,0v2.71a5.57,5.57,0,0,0,.63,0c1,0,1.77-.51,1.77-1.44C254.26,214.55,253.83,214,252.57,214Z"/><path class="cls-1" d="M269,223.84c-.85,0-2.45,0-4.8,0V211.2c1.4-.07,3.81-.11,5.54-.11,3,0,4.93,1,4.93,3.26a3,3,0,0,1-1.79,2.63V217a2.87,2.87,0,0,1,2,2.73C274.86,222.05,273,223.84,269,223.84Zm.12-9.94c-.43,0-.76,0-1.09,0v2.13h.82c1.2,0,1.75-.46,1.75-1.19S270,213.9,269.1,213.9Zm-.1,4.75h-1V221c.25,0,.66,0,1,0,1,0,1.72-.41,1.72-1.19S270.19,218.65,269,218.65Z"/><path class="cls-1" d="M288.47,223.81l-.72-2.06h-4.28l-.7,2.06H279l4.52-12.62h4.38l4.76,12.62Zm-2.24-6.38a14.2,14.2,0,0,1-.64-2.19h0a15.21,15.21,0,0,1-.68,2.4L284.4,219h2.38Z"/><path class="cls-1" d="M304.81,223.81l-2.32-4.32a30.33,30.33,0,0,1-1.38-2.85,16.1,16.1,0,0,1,.1,2v5.16h-3.68V211.19h4.9l2,3.75c.6,1.13,1.21,2.27,1.69,3.28a21.82,21.82,0,0,1-.15-2.62v-4.41h3.68v12.62Z"/><path class="cls-1" d="M324.05,223.81l-.72-2.06h-4.28l-.7,2.06h-3.78l4.52-12.62h4.39l4.75,12.62Zm-2.24-6.38a15.4,15.4,0,0,1-.64-2.19h0a15.21,15.21,0,0,1-.68,2.4L320,219h2.38Z"/></g><text/><path class="cls-1" d="M220.24,134.79a2.54,2.54,0,0,0-.87-2,3.88,3.88,0,0,0-2.63-.76h-4.3v9.26h2v-3.75h2.22l1.5,3.75h2.08l-1.7-4.07A2.5,2.5,0,0,0,220.24,134.79Zm-3.78,1.3h-2V133.5h2.19c1,0,1.58.43,1.58,1.27S217.61,136.09,216.46,136.09Z"/><path class="cls-1" d="M216.23,128.63a8,8,0,0,0,0,16.09,7.67,7.67,0,0,0,5.64-2.37,8,8,0,0,0,0-11.36A7.65,7.65,0,0,0,216.23,128.63Zm4.6,12.82a6.44,6.44,0,0,1-9.29,0,6.85,6.85,0,0,1,0-9.55,6.3,6.3,0,0,1,4.68-2,6.18,6.18,0,0,1,4.62,2,6.85,6.85,0,0,1,0,9.54Z"/></g></g></svg>