<svg xmlns="http://www.w3.org/2000/svg" viewBox="0 0 165.99 197.77"><defs><style>.cls-1{fill:#fff;}</style></defs><title>logo1_3</title><g id="Capa_2" data-name="Capa 2"><g id="texto"><path class="cls-1" d="M77.87,195.57C56.47,194,38.75,187.65,24,174.22,7.56,159.32.84,139.91.39,118.41c-.6-28-.2-55.94-.39-83.91,0-4.62,2.26-5,5.87-4.56C40.89,34.56,71.2,55,75.32,95.56,78.63,128.24,77.18,161.42,77.87,195.57ZM66.71,183.88a11.9,11.9,0,0,0,.46-2.08c0-25.05.63-50.11-.2-75.13-1.13-33.9-20.14-57.2-51.51-64.95A53.87,53.87,0,0,0,9.87,41v6.43c0,21.55-.2,43.1.12,64.65a118,118,0,0,0,2.4,22.5C18.11,161.65,39.8,180.06,66.71,183.88Z"/><path class="cls-1" d="M88.84,196.33c1.64-27.53-3.51-54.26,7.15-79.87,10.82-26,42.54-46.75,70-44.6,0,2.38,0,4.83,0,7.28-.32,15.88.32,31.85-1.18,47.62-3.35,35.19-25.79,59.51-60.43,67C99.67,194.78,94.87,195.35,88.84,196.33Zm10-11.36c21.67-4.73,38.47-14.26,48.74-33.25,11.85-21.92,7.7-45.66,8.4-69.59-18.74,3.82-34,11.69-44.67,27C95.32,132.15,99.14,158.36,98.81,185Z"/><path class="cls-1" d="M13.44,18.69C62.79-18.4,137.84,2,160.8,59.54c-8.24,2.73-8.64,2.6-12.41-4C124.93,14.29,76.66-1.25,32.63,18.25,23.69,22.21,23.69,22.21,13.44,18.69Z"/><path class="cls-1" d="M140.26,63.9l-7.95,2.9c-5.57-6.55-10.21-13.37-16.16-18.74C99,32.6,78.62,27.29,56.16,32.21c-6.84,1.49-10.89-1.36-15.86-4.59C71.22,11.33,120.57,23.69,140.26,63.9Z"/><path class="cls-1" d="M121,72.36l-7.38,5c-.78-1-1.52-1.79-2.09-2.69-9.16-14.39-22.14-22-39.23-23.57-3.82-.36-7.29-4.52-11.85-7.55C80,37.12,110.61,49.22,121,72.36Z"/></g><g id="Capa_8" data-name="Capa 8"><path class="cls-1" d="M164,186.68a10.7,10.7,0,0,1-3.25,7.83,10.58,10.58,0,0,1-7.78,3.26,11.1,11.1,0,0,1,0-22.19,10.55,10.55,0,0,1,7.77,3.26A10.75,10.75,0,0,1,164,186.68Zm-2,0a9.12,9.12,0,0,0-2.66-6.57,8.55,8.55,0,0,0-6.37-2.74,8.67,8.67,0,0,0-6.46,2.74,9.44,9.44,0,0,0,0,13.17,8.89,8.89,0,0,0,12.8,0A9.06,9.06,0,0,0,162.05,186.67Zm-3.51,6.39h-2.87l-2.08-5.16h-3.05v5.16h-2.73V180.29h5.92a5.3,5.3,0,0,1,3.63,1.06,3.48,3.48,0,0,1,1.19,2.73,3.44,3.44,0,0,1-2.37,3.37Zm-8-7.19h2.8c1.6,0,2.39-.6,2.39-1.82s-.73-1.75-2.18-1.75h-3Z"/></g></g></svg>