<?xml version="1.0" encoding="utf-8"?>
<!-- Generator: Adobe Illustrator 23.0.0, SVG Export Plug-In . SVG Version: 6.00 Build 0)  -->
<svg version="1.1" id="Capa_1" xmlns="http://www.w3.org/2000/svg" xmlns:xlink="http://www.w3.org/1999/xlink" x="0px" y="0px"
	 viewBox="0 0 35.4 35.4" style="enable-background:new 0 0 35.4 35.4;" xml:space="preserve">
<style type="text/css">
	.st0{fill:#495551;}
	.st1{fill:#FFFFFF;}
</style>
<title>icono-instagram</title>
<g>
	<g id="texto">
		<circle class="st0" cx="17.7" cy="17.7" r="17.7"/>
		<path class="st1" d="M23.2,11c-0.7,0-1.2,0.5-1.2,1.2s0.5,1.2,1.2,1.2s1.2-0.5,1.2-1.2l0,0C24.4,11.5,23.9,11,23.2,11L23.2,11z"/>
		<path class="st1" d="M17.8,12.6c-2.8,0-5.1,2.3-5.1,5.1s2.3,5.1,5.1,5.1s5.1-2.3,5.1-5.1l0,0C22.9,14.9,20.6,12.6,17.8,12.6z
			 M17.8,20.9c-1.8,0-3.3-1.5-3.3-3.3s1.5-3.3,3.3-3.3s3.3,1.5,3.3,3.3l0,0C21,19.5,19.6,20.9,17.8,20.9z"/>
		<path class="st1" d="M21.8,28h-8.3c-3.4,0-6.2-2.8-6.2-6.2v-8.2c0-3.4,2.8-6.2,6.2-6.2h8.3c3.4,0,6.2,2.8,6.2,6.2v8.3
			C28,25.2,25.3,28,21.8,28z M13.6,9.3c-2.4,0-4.3,1.9-4.3,4.3l0,0v8.3c0,2.4,1.9,4.3,4.3,4.3l0,0h8.3c2.4,0,4.3-1.9,4.3-4.3l0,0
			v-8.3c0-2.4-1.9-4.3-4.3-4.3l0,0C21.9,9.3,13.6,9.3,13.6,9.3z"/>
	</g>
</g>
</svg>
