<?xml version="1.0" encoding="utf-8"?>
<!-- Generator: Adobe Illustrator 23.0.0, SVG Export Plug-In . SVG Version: 6.00 Build 0)  -->
<svg version="1.1" id="Capa_1" xmlns="http://www.w3.org/2000/svg" xmlns:xlink="http://www.w3.org/1999/xlink" x="0px" y="0px"
	 viewBox="0 0 35.4 35.4" style="enable-background:new 0 0 35.4 35.4;" xml:space="preserve">
<style type="text/css">
	.st0{fill:#495551;}
	.st1{fill:#FFFFFF;}
</style>
<title>icono-twitter</title>
<g>
	<g id="texto">
		<circle class="st0" cx="17.7" cy="17.7" r="17.7"/>
		<path class="st1" d="M27.5,11.6c-0.6,0.3-1.3,0.5-2,0.6c0.3-0.1,0.8-0.6,1-0.9c0.3-0.3,0.5-0.8,0.6-1.2V10H27
			c-0.7,0.4-1.5,0.7-2.3,1c0,0-0.1,0-0.2,0l-0.2-0.2c-0.3-0.3-0.7-0.6-1.1-0.8c-0.5-0.2-1.1-0.3-1.7-0.3s-1.1,0.2-1.6,0.5
			s-1,0.6-1.3,1.1c-0.7,0.9-1,2.1-0.8,3.2c0,0.1,0,0.1-0.1,0.1c-3.1-0.3-5.9-1.7-7.9-4c-0.1-0.1-0.1-0.1-0.2,0
			c-0.9,1.6-0.6,3.5,0.7,4.8c0.2,0.1,0.3,0.3,0.5,0.4c-0.5,0-1.1-0.2-1.5-0.4C9,15.3,9,15.3,9,15.4c0,0.2,0,0.3,0,0.5
			c0.2,1.5,1.1,2.7,2.5,3.3c0.2,0.1,0.3,0.1,0.5,0.1c-0.5,0.1-1,0.1-1.5,0c-0.1,0-0.1,0-0.1,0.1c0.5,1.4,1.7,2.4,3.2,2.6l0.4,0.1
			l0,0c-0.6,0.6-1.4,0.9-2.2,1.1c-1,0.4-2.2,0.5-3.3,0.4c-0.2,0-0.2,0-0.3,0s0,0.1,0.1,0.1C8.5,23.8,8.7,24,9,24.1
			c0.7,0.4,1.4,0.7,2.2,0.9c4,1.2,8.3,0.2,11.3-2.6c2.2-2.4,3.3-5.5,3.1-8.7c0-0.1,0.1-0.2,0.2-0.3c0.6-0.4,1.1-0.9,1.5-1.5
			C27.5,11.9,27.5,11.8,27.5,11.6L27.5,11.6L27.5,11.6z"/>
	</g>
</g>
</svg>
