<?xml version="1.0" encoding="utf-8"?>
<!-- Generator: Adobe Illustrator 23.0.0, SVG Export Plug-In . SVG Version: 6.00 Build 0)  -->
<svg version="1.1" id="Capa_1" xmlns="http://www.w3.org/2000/svg" xmlns:xlink="http://www.w3.org/1999/xlink" x="0px" y="0px"
	 viewBox="0 0 35.4 35.4" style="enable-background:new 0 0 35.4 35.4;" xml:space="preserve">
<style type="text/css">
	.st0{fill:#495551;}
	.st1{fill:#FFFFFF;}
</style>
<title>icono-facebook</title>
<g>
	<g id="texto">
		<path class="st0" d="M35.4,17.7C35.4,7.9,27.5,0,17.7,0S0,7.9,0,17.7c0,8.7,6.3,16.1,14.9,17.5V22.8h-4.5v-5.1h4.5v-3.9
			c0-4.4,2.6-6.9,6.7-6.9c1.3,0,2.7,0.1,4,0.3v4.3h-2.3c-1.4-0.2-2.7,0.8-2.9,2.2c0,0.2,0,0.4,0,0.6v3.3h4.9l-0.8,5.1h-4.1v12.4
			C29,33.8,35.4,26.4,35.4,17.7z"/>
		<path class="st1" d="M24.6,22.7l0.8-5.1h-4.9v-3.3c-0.1-1.4,0.9-2.6,2.3-2.8c0.2,0,0.4,0,0.6,0h2.2V7.2c-1.3-0.2-2.7-0.3-4-0.3
			c-4,0-6.7,2.5-6.7,6.9v3.9h-4.5v5.1h4.5v12.4c1.8,0.3,3.7,0.3,5.5,0V22.7H24.6z"/>
	</g>
</g>
</svg>
