<svg xmlns="http://www.w3.org/2000/svg" viewBox="0 0 483.33 512"><defs><style>.cls-1{fill:#c0ea6a;}.cls-2{fill:#f9d8d2;}.cls-3{fill:#7eaf58;}.cls-4{fill:#5b9150;}.cls-5{fill:#a9d366;}.cls-6{fill:#f4c6be;}.cls-7{fill:#fff;}</style></defs><title>eco-phone</title><g id="Capa_2" data-name="Capa 2"><g id="texto"><path class="cls-1" d="M47,115.75a7.73,7.73,0,1,0,2.47,10.64A7.74,7.74,0,0,0,47,115.75Z"/><path class="cls-1" d="M96.28,52.63a7.73,7.73,0,1,0,10.82,1.52A7.72,7.72,0,0,0,96.28,52.63Z"/><path class="cls-1" d="M26.34,153.74a7.73,7.73,0,1,0,4.41,10,7.72,7.72,0,0,0-4.41-10Z"/><path class="cls-1" d="M74.18,82.18a7.72,7.72,0,1,0,.49,10.92h0A7.72,7.72,0,0,0,74.18,82.18Z"/><path class="cls-1" d="M20.62,322.91a7.74,7.74,0,0,0,2.8,14.94,7.88,7.88,0,0,0,2.79-.53,7.73,7.73,0,1,0-5.59-14.41Z"/><path class="cls-1" d="M7.73,253.25A7.73,7.73,0,1,0,0,245.51a7.73,7.73,0,0,0,7.73,7.74Z"/><path class="cls-1" d="M19.23,287.14a7.72,7.72,0,1,0-7.6,9.14,7.55,7.55,0,0,0,1.41-.13A7.72,7.72,0,0,0,19.23,287.14Z"/><path class="cls-1" d="M10.28,210.1a7.84,7.84,0,0,0,1.43.13,7.72,7.72,0,1,0-1.43-.13Z"/><path class="cls-1" d="M461.85,325.34a7.73,7.73,0,1,0,4.31,10A7.71,7.71,0,0,0,461.85,325.34Z"/><path class="cls-1" d="M443.43,364.44a7.73,7.73,0,1,0,2.38,10.67,7.72,7.72,0,0,0-2.38-10.67Z"/><path class="cls-1" d="M437.83,117.93a7.73,7.73,0,1,0,10.62,2.6,7.74,7.74,0,0,0-10.62-2.6Z"/><path class="cls-1" d="M472.71,283.49a7.73,7.73,0,1,0-3,15.17,8.46,8.46,0,0,0,1.5.14,7.73,7.73,0,0,0,1.48-15.31Z"/><path class="cls-1" d="M464.49,206.39a7.72,7.72,0,1,0,6.27-8.95A7.73,7.73,0,0,0,464.49,206.39Z"/><path class="cls-1" d="M475.69,240.38a7.73,7.73,0,0,0-.17,15.46h.08a7.73,7.73,0,0,0,.09-15.46Z"/><path class="cls-1" d="M460.73,171.11a7.72,7.72,0,1,0-7.23-5A7.67,7.67,0,0,0,460.73,171.11Z"/><path class="cls-1" d="M260.09,471.18h0a7.73,7.73,0,0,0,.61,15.44c.21,0,.42,0,.63,0a7.73,7.73,0,0,0-1.24-15.41Z"/><path class="cls-1" d="M301.22,464a7.73,7.73,0,0,0,2,15.19,7.51,7.51,0,0,0,2-.27A7.73,7.73,0,1,0,301.22,464Z"/><path class="cls-1" d="M411,84.06a7.73,7.73,0,1,0,10.91.61A7.73,7.73,0,0,0,411,84.06Z"/><path class="cls-1" d="M376.05,427.7a7.72,7.72,0,1,0,10.8,1.62,7.74,7.74,0,0,0-10.8-1.62Z"/><path class="cls-1" d="M340.32,449.33A7.73,7.73,0,0,0,343.7,464a7.52,7.52,0,0,0,3.37-.78,7.73,7.73,0,0,0-6.75-13.9Z"/><path class="cls-1" d="M418.13,399.49a7.73,7.73,0,1,0,.39,10.92,7.72,7.72,0,0,0-.39-10.92Z"/><path class="cls-1" d="M389.22,54.28h0a7.73,7.73,0,1,0,1.4,10.84,7.72,7.72,0,0,0-1.4-10.84Z"/><path class="cls-1" d="M218.3,470.73h0a7.73,7.73,0,0,0-1.58,15.38c.27,0,.53,0,.79,0a7.72,7.72,0,0,0,.79-15.41Z"/><ellipse class="cls-2" cx="188.85" cy="335.86" rx="96.52" ry="96.96"/><path class="cls-3" d="M324.77,375H165a23.25,23.25,0,0,1-23.25-23.25V23.25A23.25,23.25,0,0,1,165,0H324.77A23.24,23.24,0,0,1,348,23.25V351.78A23.24,23.24,0,0,1,324.77,375Z"/><path class="cls-4" d="M324.77,0H283.56a23.25,23.25,0,0,1,23.25,23.25V351.78A23.25,23.25,0,0,1,283.56,375h41.21A23.24,23.24,0,0,0,348,351.78V23.25A23.24,23.24,0,0,0,324.77,0Z"/><path class="cls-1" d="M141.79,35.06H348V324H141.79Z"/><path class="cls-5" d="M306.81,35.06H348V324h-41.2Z"/><path class="cls-2" d="M173.06,386.53c28.06-40.8,15.67-108.86-31.72-129.37V163.68a24.51,24.51,0,1,0-49,0V348L56,384.58l84.7,85.09,37.19-37.36"/><path class="cls-6" d="M141.34,257.16V163.67a24.51,24.51,0,1,0-49,0v93.64C126,272.1,141.89,311,138,346.86c-2.32,21.11,13.86,39.67,35.1,39.67,28.06-40.8,15.67-108.86-31.72-129.37Z"/><path class="cls-2" d="M315.91,111.84v-.1a22.52,22.52,0,0,1,22.52-22.52h13.49a22.52,22.52,0,0,1,22.52,22.52v.1a22.52,22.52,0,0,1-22.52,22.52H338.43A22.52,22.52,0,0,1,315.91,111.84Z"/><path class="cls-6" d="M351.92,89.22H338.43A22.35,22.35,0,0,0,329.72,91a22.52,22.52,0,0,1,13.81,20.77v.1a22.54,22.54,0,0,1-13.81,20.78,22.53,22.53,0,0,0,8.71,1.75h13.49a22.53,22.53,0,0,0,22.52-22.53v-.1a22.52,22.52,0,0,0-22.52-22.52Z"/><path class="cls-2" d="M315.91,157v-.1a22.52,22.52,0,0,1,22.52-22.52h13.49a22.52,22.52,0,0,1,22.52,22.52v.1a22.52,22.52,0,0,1-22.52,22.52H338.43A22.52,22.52,0,0,1,315.91,157Z"/><path class="cls-6" d="M351.92,134.37H338.43a22.53,22.53,0,0,0-8.71,1.74,22.54,22.54,0,0,1,13.81,20.78v.1a22.52,22.52,0,0,1-13.81,20.77,22.35,22.35,0,0,0,8.71,1.75h13.49A22.52,22.52,0,0,0,374.44,157v-.1A22.52,22.52,0,0,0,351.92,134.37Z"/><path class="cls-2" d="M315.91,202.13V202a22.52,22.52,0,0,1,22.52-22.52h13.49A22.52,22.52,0,0,1,374.44,202v.1a22.52,22.52,0,0,1-22.52,22.52H338.43A22.52,22.52,0,0,1,315.91,202.13Z"/><path class="cls-6" d="M351.92,179.51H338.43a22.53,22.53,0,0,0-8.71,1.74A22.54,22.54,0,0,1,343.53,202v.1a22.54,22.54,0,0,1-13.81,20.78,22.53,22.53,0,0,0,8.71,1.74h13.49a22.52,22.52,0,0,0,22.52-22.52V202a22.52,22.52,0,0,0-22.52-22.52Z"/><path class="cls-2" d="M315.91,247.28v-.1a22.52,22.52,0,0,1,22.52-22.52h13.49a22.52,22.52,0,0,1,22.52,22.52v.1a22.52,22.52,0,0,1-22.52,22.52H338.43a22.52,22.52,0,0,1-22.52-22.52Z"/><path class="cls-6" d="M351.92,224.65H338.43a22.53,22.53,0,0,0-8.71,1.75,22.53,22.53,0,0,1,13.81,20.78v.1a22.52,22.52,0,0,1-13.81,20.77,22.35,22.35,0,0,0,8.71,1.75h13.49a22.52,22.52,0,0,0,22.52-22.52v-.1A22.53,22.53,0,0,0,351.92,224.65Z"/><path class="cls-3" d="M156.41,501.93a34.11,34.11,0,0,1-48.39,0L28.26,421.81a34.27,34.27,0,1,1,48.39-48.53l79.76,80.12A34.43,34.43,0,0,1,156.41,501.93Z"/><path class="cls-7" d="M171.59,101.34a7.73,7.73,0,0,0,10.93-.15L205.14,78A7.73,7.73,0,1,0,194.07,67.2L171.45,90.41A7.74,7.74,0,0,0,171.59,101.34Z"/><path class="cls-7" d="M253.39,67.05a7.73,7.73,0,0,0-10.93.15l-71,72.89a7.73,7.73,0,0,0,11.07,10.78l71-72.89a7.74,7.74,0,0,0-.14-10.93Z"/><path class="cls-5" d="M197.88,164V224.6H165.55V164Z"/><path class="cls-3" d="M230.21,143.79V224.6H197.88V143.79Z"/><path class="cls-5" d="M262.53,123.58v101H230.2v-101Z"/><path class="cls-4" d="M294.86,103.38V224.6H262.53V103.38Z"/><path class="cls-4" d="M294.86,289.83H212a7.5,7.5,0,0,0,0,15h82.84a7.5,7.5,0,0,0,0-15Z"/><path class="cls-4" d="M294.86,257.51H242.33a7.5,7.5,0,0,0,0,15h52.53a7.5,7.5,0,0,0,0-15Z"/></g></g></svg>