<svg xmlns="http://www.w3.org/2000/svg" viewBox="0 0 238.86 239"><defs><style>.cls-1{fill:#c0ea6a;}.cls-2{fill:#a9d366;}.cls-3{fill:#7eaf58;}.cls-4{fill:#baeb6c;}.cls-5{fill:#5b9150;}.cls-6{fill:#42554f;}</style></defs><title>Iconos-Mundo</title><g id="Capa_2" data-name="Capa 2"><g id="texto"><path class="cls-1" d="M180.23,137.5a78.45,78.45,0,1,0-78.44,78.65A78.55,78.55,0,0,0,180.23,137.5Z"/><path class="cls-2" d="M101.79,58.84a78.42,78.42,0,0,0-11.85.9,78.7,78.7,0,0,1,0,155.52A78.64,78.64,0,1,0,101.79,58.84Z"/><path class="cls-3" d="M91.59,89.41C79.51,97,70.44,109.1,77.24,122.73s21.9,8.33,35.87,6.44,3.4,41.27,11.71,51.87,31.72-10.6,29.46-24.23c-3.36-20.18-4.53-27.26,22.65-41.65l.08,0A78.55,78.55,0,0,0,106.7,59v.12S103.67,81.84,91.59,89.41Z"/><path class="cls-4" d="M150.93,76.2h0Z"/><path class="cls-4" d="M160.53,85.37h0Z"/><path class="cls-3" d="M49.67,173.09c-3.63-5.54,6.42-18.55,8.69-28.4S47,135.6,42.87,132.2s-9.81-18.18-14-21.59l-.66-.52a78.86,78.86,0,0,0,27.07,90.77l0-1.65A36.19,36.19,0,0,0,49.67,173.09Z"/><path class="cls-4" d="M154.28,156.81c0-.1,0-.2-.05-.3a78.33,78.33,0,0,1-6.52,17.27C152.17,168.51,155.15,162.09,154.28,156.81Z"/><path class="cls-5" d="M106.7,59v.12s-.25,1.9-.9,4.77a78.68,78.68,0,0,1,50.42,66.38c3.47-4.74,9.81-9.34,20.72-15.11l.08,0A78.55,78.55,0,0,0,106.7,59Z"/><path class="cls-6" d="M101.68,239a103,103,0,0,1-16.74-1.38A101.44,101.44,0,0,1,1.38,121a3.55,3.55,0,1,1,7,1.15,94.34,94.34,0,0,0,186.15,30.74,94.31,94.31,0,0,0-77.7-108.43,3.55,3.55,0,1,1,1.15-7A101.45,101.45,0,0,1,101.68,239Z"/><path class="cls-3" d="M80.11,85.84c-37.94-6.44-61.47-54.2-61.47-54.2S56.61-5.69,94.54.75,156,54.94,156,54.94,118,92.27,80.11,85.84Z"/><path class="cls-5" d="M94.54.75a58.77,58.77,0,0,0-21.46.54c36.35,8.16,58.77,53.65,58.77,53.65S107,79.38,77.41,85.3q1.34.3,2.7.54C118,92.27,156,54.94,156,54.94S132.48,7.18,94.54.75Z"/><path class="cls-6" d="M153.87,51l-37.1-6.26L82.12.1a66.23,66.23,0,0,0-8.21,1L106.41,43l-28-4.72L54.57,7.37c-2.24,1-4.41,2.08-6.51,3.19l20,25.95L21.85,28.7c-2.07,1.82-3.21,2.94-3.21,2.94s.76,1.54,2.22,4.1l46,7.77L41.35,63.23c1.64,1.69,3.37,3.37,5.17,5L76.4,45.12l29.62,5L65.74,81.27a58,58,0,0,0,7.75,3l42.06-32.54L152.67,58c2.16-1.87,3.34-3,3.34-3S155.28,53.46,153.87,51Z"/><path class="cls-3" d="M181.81,39.48C192,15.4,227.25,7.29,227.25,7.29s18.76,30.93,8.58,55S190.4,94.49,190.4,94.49,171.64,63.56,181.81,39.48Z"/><path class="cls-5" d="M227.25,7.29a93.91,93.91,0,0,0-17.51,6.38C214.61,24,222.33,44.93,215,62.3c-5.32,12.6-17.51,20.82-27.93,25.8,1.88,4,3.34,6.39,3.34,6.39s35.26-8.11,45.44-32.19S227.25,7.29,227.25,7.29Z"/><path class="cls-6" d="M238.72,42.44,211.6,53.82l17.81-42.56c-1.28-2.52-2.16-4-2.16-4s-1.68.38-4.41,1.24l-18.4,44L193,24.44A48.27,48.27,0,0,0,187.63,30l12.92,31.81-12.14,29c1.18,2.31,2,3.64,2,3.64s1.82-.42,4.75-1.35l12.54-30,31-13A52.36,52.36,0,0,0,238.72,42.44Z"/></g></g></svg>