<?xml version="1.0" encoding="utf-8"?>
<!-- Generator: Adobe Illustrator 23.0.0, SVG Export Plug-In . SVG Version: 6.00 Build 0)  -->
<svg version="1.1" id="Capa_1" xmlns="http://www.w3.org/2000/svg" xmlns:xlink="http://www.w3.org/1999/xlink" x="0px" y="0px"
	 viewBox="0 0 512 512" style="enable-background:new 0 0 512 512;" xml:space="preserve">
<style type="text/css">
	.st0{fill:#7EAF58;}
	.st1{fill:#C0EA6A;}
	.st2{fill:#A9D366;}
	.st3{fill:#42554F;}
	.st4{fill:#5B9150;}
	.st5{fill:#07B128;}
</style>
<path class="st0" d="M39,442.4c4-14.7,17.4-25.5,33.3-25.5c13.3,0,24.9,7.5,30.6,18.6c4.3-6.2,11.7-10.1,19.9-9.5
	c10.5,0.8,19.1,9.2,20.1,19.8c0.3,3,0,5.9-0.8,8.5c2.7-1,5.6-1.6,8.7-1.6c13.3,0,24.2,10.8,24.2,24.2c0,13.3-10.8,24.1-24.2,24.1
	c-13.3,0-111.3,0-111.3,0c-16.2,0-29.3-13.1-29.3-29.3C10.2,455.7,23,442.6,39,442.4z"/>
<path class="st1" d="M419.7,500.2H71.1V221.5L245.4,94.3l174.3,127.2V500.2z"/>
<path class="st2" d="M245.4,94.3l-22,16.1l152.3,111.1v278.7h44V221.5L245.4,94.3z"/>
<path class="st3" d="M316.5,377.5v123.1H174.3V377.5c0-39.3,31.8-71.1,71.1-71.1S316.5,338.3,316.5,377.5z"/>
<path class="st3" d="M474.5,232.4l-216.7-159c-3.5-2.5-7.6-3.8-11.7-3.8c-4.1,0-8.1,1.3-11.6,3.8l-218.1,159
	c-8.8,6.4-10.7,18.7-4.3,27.5C16,265.2,22,268,28,268c4,0,8.1-1.2,11.6-3.8L246,113.7l205.1,150.4c3.5,2.6,7.6,3.8,11.6,3.8
	c6.1,0,12-2.8,15.9-8.1C485.1,251.1,483.2,238.8,474.5,232.4z"/>
<path class="st0" d="M387.1,29.5C428-8.3,503.6,7.1,503.6,7.1s9.2,76.6-31.8,114.4s-116.6,22.4-116.6,22.4S346.1,67.3,387.1,29.5z"
	/>
<path class="st4" d="M503.6,7.1c0,0-26.8-5.4-57.1-1.9c8.1,0.9,13.1,1.9,13.1,1.9s9.2,76.6-31.8,114.4
	c-16.6,15.3-38.9,21.9-59.5,24.3c23.4,2.5,73,3.8,103.5-24.3C512.8,83.7,503.6,7.1,503.6,7.1z"/>
<path class="st3" d="M504.3,16.4c-0.3-5.8-0.7-9.3-0.7-9.3s-3.6-0.7-9.7-1.5l-86.5,79.9V15.9c-5.3,2.5-10.3,5.5-15,9.1v74.3
	l-37.9,35l-4.4,4.1c-3,2.8-3.2,7.6-0.4,10.6c1.5,1.6,3.5,2.4,5.5,2.4c1.8,0,3.6-0.7,5.1-2l4.4-4.1l39.1-36.1c0.8-0.5,1.6-1.2,2.1-2
	l38-35.1h55c1.3-5.1,2.3-10.1,3.1-15h-41.9L504.3,16.4z"/>
<path class="st0" d="M462,427.1c-5-18.5-21.9-32.1-41.9-32.1c-16.8,0-31.3,9.5-38.6,23.4c-5.4-7.8-14.7-12.7-25.1-11.9
	c-13.3,1-24.1,11.6-25.3,24.9c-0.4,3.8,0,7.4,1.1,10.8c-3.4-1.3-7.1-2-11-2c-16.8,0-30.4,13.6-30.4,30.4s13.6,30.4,30.4,30.4h140.2
	c20.4,0,37-16.5,37-36.9C498.3,443.9,482.1,427.5,462,427.1z"/>
<path class="st5" d="M337.5,418.5c1-2,2.2-3.9,3.6-5.7c-1.6,1.3-3.1,2.9-4.4,4.6C337,417.7,337.3,418.1,337.5,418.5z"/>
<path class="st4" d="M462,427.1c-5-18.5-21.9-32.1-41.9-32.1c-8,0-15.5,2.2-22,6c9.7,5.7,16.9,15,19.9,26.1
	c20.1,0.4,36.3,16.7,36.3,36.9c0,20.4-16.5,36.9-37,36.9h44c20.4,0,37-16.5,37-36.9C498.3,443.9,482.1,427.5,462,427.1z"/>
<path class="st3" d="M504.5,508.5H7.5c-4.1,0-7.5-3.4-7.5-7.5s3.4-7.5,7.5-7.5h497c4.1,0,7.5,3.4,7.5,7.5S508.6,508.5,504.5,508.5z"
	/>
</svg>
