<?xml version="1.0" encoding="utf-8"?>
<!-- Generator: Adobe Illustrator 23.0.0, SVG Export Plug-In . SVG Version: 6.00 Build 0)  -->
<svg version="1.1" id="Capa_1" xmlns="http://www.w3.org/2000/svg" xmlns:xlink="http://www.w3.org/1999/xlink" x="0px" y="0px"
	 viewBox="0 0 512 512" style="enable-background:new 0 0 512 512;" xml:space="preserve">
<style type="text/css">
	.st0{fill:#C0EA6A;}
	.st1{fill:#5B9150;}
	.st2{fill:#7EAF58;}
	.st3{fill:#42554F;}
	.st4{fill:#FFFFFF;}
	.st5{fill:#F4F4F4;}
</style>
<g id="Bulb-Ecology-Electricity-Environment-Invention">
	<path class="st0" d="M424,192c0,55.6-27.5,107.6-73.4,138.9c-9,6-14.5,16-14.6,26.8V368H176v-10.3c-0.1-10.8-5.6-20.8-14.6-26.8
		c-76.7-52.2-96.5-156.7-44.3-233.4S273.9,0.9,350.6,53.2C396.5,84.4,424,136.4,424,192z"/>
	<path class="st1" d="M352,368c8.8,0,16,7.2,16,16c-0.1,8.8-7.2,15.9-16,16H160c-8.8,0-16-7.2-16-16c0.1-8.8,7.2-15.9,16-16H352z"/>
	<path class="st2" d="M352,400c8.8,0,16,7.2,16,16c-0.1,8.8-7.2,15.9-16,16H160c-8.8,0-16-7.2-16-16c0.1-8.8,7.2-15.9,16-16H352z"/>
	<path class="st2" d="M304,304l-8,64h-80l-8-64H304z"/>
	<path class="st1" d="M180.3,432h152c-13,42-57.5,65.5-99.5,52.5C207.7,476.7,188.1,457.1,180.3,432z"/>
	<path class="st2" d="M320,272v32h-16h-96h-16v-32h64H320z"/>
	<path class="st2" d="M267.4,203.6c1.4,1.6,2.9,3,4.6,4.4l20.6-24.5c17-20.3,14.4-50.6-5.9-67.7l-20.6,24.6
		c-12.1,14.4-14.6,34.4-6.6,51.4c-9.1-10-22-15.8-35.5-15.8h-32c0,26.5,21.5,48,48,48h32C272,216.9,270.5,210,267.4,203.6
		L267.4,203.6z"/>
	<path class="st2" d="M320,192c-26.5,0-48,21.5-48,48h32c26.5,0,48-21.5,48-48H320z"/>
	<path class="st1" d="M276.6,167.5L256,192c-1.6-1.4-3.1-2.8-4.6-4.4c0,0,0-0.1-0.1-0.1l0,0c-2-4.3-4.6-8.3-7.8-11.8
		c-8.1-16.9-5.5-37,6.6-51.4l20.6-24.6C291,116.9,293.6,147.2,276.6,167.5L276.6,167.5z"/>
	<path class="st1" d="M256,208h-32c-26.5,0-48-21.5-48-48h32c13.5,0,26.4,5.7,35.5,15.8c3.2,3.5,5.9,7.5,7.8,11.8c0,0,0.1,0,0.1,0.1
		l0,0C254.5,194,256,200.9,256,208L256,208z"/>
	<path class="st1" d="M304,176h32c0,26.5-21.5,48-48,48h-32C256,197.5,277.5,176,304,176z"/>
	<path class="st1" d="M304,304l-2,16h-92l-2-16H304z"/>
	<path class="st3" d="M248,176h16v96h-16V176z"/>
	<path class="st4" d="M387.7,226l-15.5-4c1.3-4.9,2.2-9.9,2.9-15l15.9,2C390.2,214.7,389.2,220.4,387.7,226L387.7,226z"/>
	<path class="st4" d="M392,192h-16c-0.1-66.2-53.8-119.9-120-120V56C331.1,56.1,391.9,116.9,392,192z"/>
	<g>
		<path class="st0" d="M448,184h48v16h-48V184z"/>
		<path class="st0" d="M426.3,90.4l40-40l11.3,11.3l-40,40L426.3,90.4z"/>
		<path class="st0" d="M426.3,293.7l11.3-11.3l40,40l-11.3,11.3L426.3,293.7z"/>
		<path class="st0" d="M16,184h48v16H16V184z"/>
		<path class="st0" d="M34.3,61.7l11.3-11.3l40,40l-11.3,11.3L34.3,61.7z"/>
		<path class="st0" d="M34.3,322.3l40-40l11.3,11.3l-40,40L34.3,322.3z"/>
	</g>
</g>
<path class="st2" d="M194-32L194-32c-50.8,0-92-41.2-92-92v-4c0-50.8,41.2-92,92-92h0c50.8,0,92,41.2,92,92v4
	C286-73.2,244.8-32,194-32z"/>
<path class="st1" d="M9-32L9-32c-50.8,0-92-41.2-92-92v-4c0-50.8,41.2-92,92-92h0c50.8,0,92,41.2,92,92v4C101-73.2,59.8-32,9-32z"/>
<path class="st3" d="M-191-32L-191-32c-50.8,0-92-41.2-92-92v-4c0-50.8,41.2-92,92-92h0c50.8,0,92,41.2,92,92v4
	C-99-73.2-140.2-32-191-32z"/>
<path class="st0" d="M382-32L382-32c-50.8,0-92-41.2-92-92v-4c0-50.8,41.2-92,92-92h0c50.8,0,92,41.2,92,92v4
	C474-73.2,432.8-32,382-32z"/>
<path class="st5" d="M567-32L567-32c-50.8,0-92-41.2-92-92v-4c0-50.8,41.2-92,92-92h0c50.8,0,92,41.2,92,92v4
	C659-73.2,617.8-32,567-32z"/>
<path class="st4" d="M747-32L747-32c-50.8,0-92-41.2-92-92v-4c0-50.8,41.2-92,92-92h0c50.8,0,92,41.2,92,92v4
	C839-73.2,797.8-32,747-32z"/>
</svg>
