<?xml version="1.0" encoding="utf-8"?>
<!-- Generator: Adobe Illustrator 23.0.0, SVG Export Plug-In . SVG Version: 6.00 Build 0)  -->
<svg version="1.1" id="Capa_1" xmlns="http://www.w3.org/2000/svg" xmlns:xlink="http://www.w3.org/1999/xlink" x="0px" y="0px"
	 viewBox="0 0 464 464" style="enable-background:new 0 0 464 464;" xml:space="preserve">
<style type="text/css">
	.st0{fill:#7EAF58;}
	.st1{fill:#5B9150;}
	.st2{fill:#C0EA6A;}
	.st3{fill:#FFF9E1;}
	.st4{fill:#A9D366;}
	.st5{fill:#42554F;}
	.st6{fill:#F1F2F2;}
</style>
<path class="st0" d="M0,384c0,8.8,7.2,16,16,16h432c8.8,0,16-7.2,16-16v-32H264v16h-64v-16H0V384z"/>
<path class="st1" d="M0,392.5c0,4.4,7.2,8,16,8l432-1c8.8,0,16-3.6,16-8l0-16l-200,0.4l0,8l-64,0.1l0-8L0,376.5L0,392.5z"/>
<path class="st2" d="M448,80v272H16V80c0-8.8,7.2-16,16-16h400C440.8,64,448,71.2,448,80z"/>
<path class="st3" d="M232,312h0.4c-0.2-0.1-0.3-0.2-0.4-0.4V312z"/>
<path class="st4" d="M448,80v272H16v-11.2c87.7-24.6,274.7-95.9,385.1-276.8H432C440.8,64,448,71.2,448,80z"/>
<path class="st3" d="M231.6,312h0.4v-0.4C231.9,311.8,231.8,311.9,231.6,312z"/>
<path class="st2" d="M303,132c-19.1-17.9-44.3-27.9-70.6-28h-0.8c-57.4,0-104,46.6-104,104s46.6,104,104,104c0-0.2,0.2-0.4,0.4-0.4
	s0.4,0.2,0.4,0.4c42.6-0.2,80.8-26.4,96.4-66S334.1,161.1,303,132z"/>
<path class="st5" d="M200,352h64v16h-64V352z"/>
<path class="st1" d="M231.6,320h0.8c61.9,0,112-50.1,112-112s-50.1-112-112-112h-0.8c-45.9,0.2-87.1,28.4-103.8,71.1
	s-5.7,91.4,27.8,122.7c2.6,2.4,5.3,4.7,8.1,6.9C183.1,311.8,207,320,231.6,320L231.6,320z M162.5,142c7.8,4.4,16,8,24.5,10.8
	c-6.3,15-9.9,31-10.8,47.2h-39.8C138.3,178.3,147.5,157.8,162.5,142z M301.5,274c-7.8-4.4-16-8-24.5-10.8c6.3-15,9.9-31,10.8-47.2
	h39.8C325.7,237.7,316.5,258.2,301.5,274L301.5,274z M240,272.3c4.6,0.3,9.1,0.8,13.7,1.6c-4,6.6-8.5,12.8-13.7,18.6V272.3z
	 M224,292.4c-5.1-5.8-9.7-12-13.7-18.6c4.5-0.8,9.1-1.3,13.7-1.6V292.4z M269.7,277.8c6.5,2,12.9,4.5,19.1,7.5l-0.2,0.1
	c-1.3,1-2.6,1.9-4,2.8c-0.5,0.3-1,0.7-1.5,1c-0.6,0.4-1.3,0.7-1.9,1.1c-1.8,1.1-3.6,2.2-5.5,3.2c-0.6,0.3-1.2,0.6-1.9,0.9
	c-1.9,0.9-3.8,1.8-5.8,2.6c-0.9,0.4-1.8,0.7-2.7,1c-1.7,0.6-3.5,1.2-5.2,1.8c-1,0.3-2,0.6-3,0.9c-1.3,0.3-2.6,0.6-3.8,0.9
	C259.5,294.2,265.1,286.3,269.7,277.8z M261.2,259c-7-1.4-14.1-2.3-21.2-2.7V216h31.6C270.7,230.8,267.2,245.4,261.2,259z M240,200
	v-40.2c7.1-0.4,14.2-1.3,21.2-2.7c6,13.6,9.5,28.2,10.4,43H240V200z M224,143.7c-4.6-0.3-9.1-0.8-13.7-1.6c4-6.6,8.5-12.8,13.7-18.6
	V143.7z M240,143.7v-20.2c5.1,5.8,9.7,12,13.7,18.6C249.1,142.9,244.6,143.4,240,143.7z M194.3,138.1c-6.5-2-12.9-4.5-19.1-7.5
	l0.2-0.1c1.3-1,2.6-1.9,4-2.8c0.5-0.3,1-0.7,1.5-1c0.6-0.4,1.3-0.7,1.9-1.1c1.8-1.1,3.6-2.2,5.5-3.2c0.6-0.3,1.2-0.6,1.9-0.9
	c1.9-0.9,3.8-1.8,5.8-2.6c0.9-0.4,1.8-0.7,2.7-1c1.7-0.6,3.5-1.2,5.2-1.8c1-0.3,2-0.6,3-0.9c1.3-0.3,2.6-0.6,3.8-0.9
	C204.5,121.8,198.9,129.7,194.3,138.1L194.3,138.1z M202.8,157c7,1.5,14.1,2.4,21.2,2.8V200h-31.6
	C193.3,185.2,196.8,170.6,202.8,157L202.8,157z M224,216v40.3c-7.1,0.4-14.2,1.3-21.2,2.7c-6-13.6-9.5-28.2-10.4-43H224z
	 M194.3,277.8c4.7,8.5,10.2,16.4,16.5,23.8c-0.9-0.2-1.9-0.4-2.8-0.7c-0.9-0.2-1.7-0.4-2.6-0.7c-0.6-0.2-1.1-0.3-1.7-0.5
	c-1.4-0.4-2.7-0.9-4.1-1.4c-0.9-0.3-1.9-0.6-2.8-1c-0.3-0.1-0.7-0.2-1-0.4c-1.5-0.6-2.9-1.3-4.4-2c-1.1-0.5-2.3-1-3.4-1.6
	c-1.5-0.8-3-1.7-4.5-2.6c-0.9-0.6-1.9-1.1-2.8-1.6c-0.5-0.3-0.9-0.6-1.4-0.9c-1.2-0.8-2.4-1.7-3.6-2.5l-0.5-0.4
	C181.4,282.3,187.7,279.8,194.3,277.8z M287.8,200c-0.9-16.2-4.5-32.2-10.8-47.2c8.5-2.8,16.7-6.4,24.5-10.8
	c15,15.8,24.2,36.3,26.1,58H287.8z M269.7,138.2c-4.7-8.5-10.2-16.4-16.5-23.7c0.9,0.2,1.9,0.4,2.8,0.7c0.9,0.2,1.7,0.4,2.6,0.7
	c0.6,0.2,1.1,0.3,1.7,0.5c1.4,0.4,2.7,0.9,4.1,1.4c0.9,0.3,1.9,0.6,2.8,1c0.3,0.1,0.7,0.2,1,0.4c1.5,0.6,2.9,1.3,4.4,2
	c1.1,0.5,2.3,1,3.4,1.6c1.5,0.8,3,1.7,4.5,2.6c0.9,0.6,1.9,1.1,2.8,1.6c0.5,0.3,0.9,0.6,1.4,0.9c1.2,0.8,2.4,1.7,3.6,2.5l0.5,0.4
	C282.6,133.7,276.3,136.2,269.7,138.2z M176.2,216c0.9,16.2,4.5,32.2,10.8,47.2c-8.5,2.8-16.7,6.5-24.5,10.8
	c-15-15.8-24.2-36.3-26.1-58H176.2z"/>
<path class="st0" d="M352,144.1c23.6,44.2,20.9,97.8-6.9,139.4l13.3,8.9c31.3-46.8,34.1-107,7.4-156.5H376v-16h-32c-4.4,0-8,3.6-8,8
	v32h16V144.1z"/>
<path class="st0" d="M112,271.9c-23.6-44.2-20.9-97.8,6.9-139.4l-13.3-8.9c-33.1,49.5-34.2,113.8-2.7,164.4H88v16h32
	c4.4,0,8-3.6,8-8v-32h-16V271.9z"/>
<g>
	<path class="st6" d="M80,88H48c-4.4,0-8,3.6-8,8v32h16v-24h24V88z"/>
	<path class="st6" d="M384,328h32c4.4,0,8-3.6,8-8v-32h-16v24h-24V328z"/>
</g>
</svg>
