<?xml version="1.0" encoding="utf-8"?>
<!-- Generator: Adobe Illustrator 23.0.0, SVG Export Plug-In . SVG Version: 6.00 Build 0)  -->
<svg version="1.1" id="Layer_3" xmlns="http://www.w3.org/2000/svg" xmlns:xlink="http://www.w3.org/1999/xlink" x="0px" y="0px"
	 viewBox="0 0 512 512" style="enable-background:new 0 0 512 512;" xml:space="preserve">
<style type="text/css">
	.st0{fill:#7EAF58;}
	.st1{fill:#C0EA6A;}
	.st2{fill:#5B9150;}
	.st3{fill:#32493B;}
	.st4{fill:#4A604D;}
	.st5{fill:#1A3323;}
	.st6{fill:#351B1B;}
</style>
<g>
	<path class="st0" d="M441.3,312c0,101.6-82.4,184-184,184s-184-82.4-184-184H441.3z"/>
	<path class="st1" d="M402.5,425c-62.4,80.2-178,94.6-258.2,32.3c-4.5-3.5-8.9-7.3-13.1-11.2l62-62h64l32-32h72v40L402.5,425z"/>
	<path class="st1" d="M73.3,312h120v24l-88,80l0.1-0.1C84.4,385.3,73.2,349.1,73.3,312z"/>
</g>
<g>
	<path class="st2" d="M17.3,264h480v48h-480V264z"/>
	<path class="st0" d="M473.3,272v-8h-456v24h440C466.1,288,473.3,280.8,473.3,272z"/>
</g>
<g>
	<polyline class="st2" points="213.2,112.6 213.2,19.3 302.5,19.3 302.5,158.7 302.5,264 276.2,264 242.7,264 213.2,264 	"/>
	<polygon class="st0" points="213.2,19.2 302.5,112.3 302.5,19.2 	"/>
	<path class="st1" d="M283.2,57.2c-2.4,0-4.3-1.9-4.3-4.3V40.1c0-2.4,1.9-4.3,4.3-4.3s4.3,1.9,4.3,4.3v12.9
		C287.5,55.3,285.6,57.2,283.2,57.2z"/>
	<rect x="347.5" y="201.9" class="st2" width="72.5" height="62.1"/>
	<path class="st1" d="M257.9,207.3c-2.4,0-4.3-1.9-4.3-4.3v-12.9c0-2.4,1.9-4.3,4.3-4.3c2.4,0,4.3,1.9,4.3,4.3V203
		C262.2,205.4,260.3,207.3,257.9,207.3z"/>
	<rect x="94.6" y="193.5" class="st2" width="73.4" height="70.5"/>
	<polygon class="st0" points="94.6,193.2 153.4,240.1 153.4,193.2 	"/>
	<polygon class="st0" points="374.2,201.9 419.9,239 419.9,201.9 	"/>
	<rect x="153.4" y="88.2" class="st3" width="89.3" height="175.8"/>
	<polygon class="st4" points="153.4,88.3 242.7,167.2 242.7,88.3 	"/>
	<g>
		<rect x="153.4" y="140.7" class="st5" width="89.3" height="8.6"/>
		<rect x="153.4" y="169.6" class="st5" width="89.3" height="8.6"/>
		<rect x="153.4" y="198.5" class="st5" width="89.3" height="8.6"/>
		<rect x="153.4" y="227.4" class="st5" width="89.3" height="8.6"/>
		<rect x="153.4" y="111.8" class="st5" width="89.3" height="8.6"/>
	</g>
	<path id="SVGCleanerId_0_7_" class="st6" d="M348.1,190.1h-47.5c-2.4,0-4.3-1.9-4.3-4.3c0-2.4,1.9-4.3,4.3-4.3h47.5
		c2.4,0,4.3,1.9,4.3,4.3C352.4,188.2,350.5,190.1,348.1,190.1z"/>
	<g>
		<path class="st5" d="M232.6,57.2c-2.4,0-4.3-1.9-4.3-4.3V40.1c0-2.4,1.9-4.3,4.3-4.3c2.4,0,4.3,1.9,4.3,4.3v12.9
			C236.9,55.3,234.9,57.2,232.6,57.2z"/>
		<path class="st5" d="M257.9,57.2c-2.4,0-4.3-1.9-4.3-4.3V40.1c0-2.4,1.9-4.3,4.3-4.3c2.4,0,4.3,1.9,4.3,4.3v12.9
			C262.2,55.3,260.3,57.2,257.9,57.2z"/>
		<g>
			<path class="st5" d="M283.2,132.2c-2.4,0-4.3-1.9-4.3-4.3V115c0-2.4,1.9-4.3,4.3-4.3s4.3,1.9,4.3,4.3v12.9
				C287.5,130.3,285.6,132.2,283.2,132.2z"/>
			<path class="st5" d="M283.2,244.9c-2.4,0-4.3-1.9-4.3-4.3v-12.9c0-2.4,1.9-4.3,4.3-4.3s4.3,1.9,4.3,4.3v12.9
				C287.5,242.9,285.6,244.9,283.2,244.9z"/>
			<path class="st5" d="M257.9,244.9c-2.4,0-4.3-1.9-4.3-4.3v-12.9c0-2.4,1.9-4.3,4.3-4.3c2.4,0,4.3,1.9,4.3,4.3v12.9
				C262.2,242.9,260.3,244.9,257.9,244.9z"/>
			<path class="st5" d="M283.2,207.3c-2.4,0-4.3-1.9-4.3-4.3v-12.9c0-2.4,1.9-4.3,4.3-4.3s4.3,1.9,4.3,4.3V203
				C287.5,205.4,285.6,207.3,283.2,207.3z"/>
		</g>
		<g>
			<path class="st5" d="M283.2,169.7c-2.4,0-4.3-1.9-4.3-4.3v-12.9c0-2.4,1.9-4.3,4.3-4.3s4.3,1.9,4.3,4.3v12.9
				C287.5,167.8,285.6,169.7,283.2,169.7z"/>
			<path class="st5" d="M257.9,169.7c-2.4,0-4.3-1.9-4.3-4.3v-12.9c0-2.4,1.9-4.3,4.3-4.3c2.4,0,4.3,1.9,4.3,4.3v12.9
				C262.2,167.8,260.3,169.7,257.9,169.7z"/>
		</g>
		<g>
			<path class="st5" d="M405,244.4c-2.4,0-4.3-1.9-4.3-4.3v-12.9c0-2.4,1.9-4.3,4.3-4.3c2.4,0,4.3,1.9,4.3,4.3v12.9
				C409.3,242.5,407.4,244.4,405,244.4z"/>
			<path class="st5" d="M379.7,244.4c-2.4,0-4.3-1.9-4.3-4.3v-12.9c0-2.4,1.9-4.3,4.3-4.3s4.3,1.9,4.3,4.3v12.9
				C384,242.5,382.1,244.4,379.7,244.4z"/>
		</g>
		<g>
			<path class="st5" d="M283.2,94.6c-2.4,0-4.3-1.9-4.3-4.3V77.4c0-2.4,1.9-4.3,4.3-4.3s4.3,1.9,4.3,4.3v12.9
				C287.5,92.7,285.6,94.6,283.2,94.6z"/>
			<path class="st5" d="M257.9,94.6c-2.4,0-4.3-1.9-4.3-4.3V77.4c0-2.4,1.9-4.3,4.3-4.3c2.4,0,4.3,1.9,4.3,4.3v12.9
				C262.2,92.7,260.3,94.6,257.9,94.6z"/>
			<path class="st5" d="M257.9,132.2c-2.4,0-4.3-1.9-4.3-4.3V115c0-2.4,1.9-4.3,4.3-4.3c2.4,0,4.3,1.9,4.3,4.3v12.9
				C262.2,130.3,260.3,132.2,257.9,132.2z"/>
		</g>
		<g>
			<path class="st5" d="M135.5,223.3c-2.4,0-4.3-1.9-4.3-4.3v-11.2c0-2.4,1.9-4.3,4.3-4.3s4.3,1.9,4.3,4.3V219
				C139.8,221.4,137.9,223.3,135.5,223.3z"/>
			<path class="st5" d="M135.5,252.9c-2.4,0-4.3-1.9-4.3-4.3v-11.2c0-2.4,1.9-4.3,4.3-4.3s4.3,1.9,4.3,4.3v11.2
				C139.8,251,137.9,252.9,135.5,252.9z"/>
			<path class="st5" d="M113.8,223.3c-2.4,0-4.3-1.9-4.3-4.3v-11.2c0-2.4,1.9-4.3,4.3-4.3c2.4,0,4.3,1.9,4.3,4.3V219
				C118.1,221.4,116.2,223.3,113.8,223.3z"/>
			<path class="st5" d="M113.8,252.9c-2.4,0-4.3-1.9-4.3-4.3v-11.2c0-2.4,1.9-4.3,4.3-4.3c2.4,0,4.3,1.9,4.3,4.3v11.2
				C118.1,251,116.2,252.9,113.8,252.9z"/>
		</g>
	</g>
	<g>
		<path class="st0" d="M369.2,108.4h-52.4c-2.4,0-4.3-1.9-4.3-4.3c0-2.4,1.9-4.3,4.3-4.3h52.4c2.4,0,4.3,1.9,4.3,4.3
			C373.5,106.5,371.6,108.4,369.2,108.4z"/>
		<path class="st0" d="M385.5,126.4h-37.8c-2.4,0-4.3-1.9-4.3-4.3s1.9-4.3,4.3-4.3h37.8c2.4,0,4.3,1.9,4.3,4.3
			C389.8,124.5,387.9,126.4,385.5,126.4z"/>
		<path class="st0" d="M190.6,57.7h-37.8c-2.4,0-4.3-1.9-4.3-4.3c0-2.4,1.9-4.3,4.3-4.3h37.8c2.4,0,4.3,1.9,4.3,4.3
			C194.9,55.8,193,57.7,190.6,57.7z"/>
		<path class="st0" d="M169.1,72h-37.8c-2.4,0-4.3-1.9-4.3-4.3s1.9-4.3,4.3-4.3h37.8c2.4,0,4.3,1.9,4.3,4.3S171.5,72,169.1,72z"/>
	</g>
	<polyline class="st3" points="283.2,264 302.5,264 365.5,264 365.5,162.9 283.2,162.9 	"/>
	<polyline class="st4" points="365.5,230.7 365.5,163.2 283.2,163.2 	"/>
	<g>
		<path class="st5" d="M348.1,230.7h-47.5c-2.4,0-4.3-1.9-4.3-4.3s1.9-4.3,4.3-4.3h47.5c2.4,0,4.3,1.9,4.3,4.3
			S350.5,230.7,348.1,230.7z"/>
		<path class="st5" d="M348.1,251h-47.5c-2.4,0-4.3-1.9-4.3-4.3s1.9-4.3,4.3-4.3h47.5c2.4,0,4.3,1.9,4.3,4.3S350.5,251,348.1,251z"
			/>
		<path class="st5" d="M348.1,210.4h-47.5c-2.4,0-4.3-1.9-4.3-4.3c0-2.4,1.9-4.3,4.3-4.3h47.5c2.4,0,4.3,1.9,4.3,4.3
			C352.4,208.5,350.5,210.4,348.1,210.4z"/>
	</g>
	<g>
		<path id="SVGCleanerId_0_6_" class="st5" d="M348.1,190.1h-47.5c-2.4,0-4.3-1.9-4.3-4.3c0-2.4,1.9-4.3,4.3-4.3h47.5
			c2.4,0,4.3,1.9,4.3,4.3C352.4,188.2,350.5,190.1,348.1,190.1z"/>
	</g>
	<g>
		<circle class="st1" cx="332.5" cy="206.1" r="4.3"/>
		<circle class="st1" cx="300.6" cy="186.1" r="4.3"/>
	</g>
</g>
</svg>
