<svg xmlns="http://www.w3.org/2000/svg" viewBox="0 0 641.1 641.1"><defs><style>.cls-1{fill:none;}.cls-2{fill:#c0ea6a;}.cls-3{fill:#5b9150;}.cls-4{fill:#fff;}.cls-5{fill:#a9d366;}</style></defs><title>phone-iconos_1</title><g id="Capa_2" data-name="Capa 2"><g id="Capa_4" data-name="Capa 4"><rect class="cls-1" width="641.1" height="641.1"/><circle class="cls-2" cx="312.53" cy="331.95" r="235.82"/><path class="cls-3" d="M564.39,463.74l-13.21,19.82q-3.84,5.78-8,11.32-3.42,4.61-7.07,9c-1,1.19-2,2.37-3,3.54q-6.69,7.89-14,15.23a77.29,77.29,0,0,1-71.05,20.87,403.64,403.64,0,0,1-199.67-109l-37.21-37.21a403.8,403.8,0,0,1-109-199.67,77.29,77.29,0,0,1,20.87-71,257.87,257.87,0,0,1,39.13-32.08L182,81.32l95.61,95.6L251.4,203.11l-11.32,11.31-10.31,10.31-8.1,8.1a17.52,17.52,0,0,0,0,24.77h0L388.11,424a17.52,17.52,0,0,0,24.77,0h0l8.1-8.1,47.81-47.81Z"/><path class="cls-4" d="M165.41,297.59c-3.81-6.79-7.45-13.79-10.83-20.79L169,269.85c3.23,6.71,6.72,13.41,10.37,19.92Z"/><path class="cls-4" d="M246.73,399l-18.59-18.59a380.93,380.93,0,0,1-50.65-62.71L190.94,309a364.81,364.81,0,0,0,48.51,60.06l18.6,18.6Z"/><path class="cls-5" d="M543.17,494.88q-3.42,4.61-7.07,9c-1,1.19-2,2.37-3,3.54l-79.06-79,11.32-11.31Z"/><path class="cls-5" d="M156.39,130.69l11.31-11.31L251.36,203,240,214.35Z"/><path class="cls-3" d="M460.39,313.32h-16a112.13,112.13,0,0,0-112-112v-16A128.15,128.15,0,0,1,460.39,313.32Z"/><path class="cls-3" d="M516.39,313.32h-16c0-92.63-75.37-168-168-168v-16C433.85,129.32,516.39,211.87,516.39,313.32Z"/><path class="cls-3" d="M572.39,313.32h-16c0-123.71-100.29-224-224-224v-16C464.94,73.32,572.39,180.78,572.39,313.32Z"/><path class="cls-3" d="M404.39,313.32h-16a56.07,56.07,0,0,0-56-56v-16A72.1,72.1,0,0,1,404.39,313.32Z"/></g></g></svg>